<svg xmlns="http://www.w3.org/2000/svg" xmlns:xlink="http://www.w3.org/1999/xlink" width="500" zoomAndPan="magnify" viewBox="0 0 375 374.999991" height="500" preserveAspectRatio="xMidYMid meet" version="1.0"><defs><g/><clipPath id="3152472018"><path d="M 239 132 L 245.757812 132 L 245.757812 148 L 239 148 Z M 239 132 " clip-rule="nonzero"/></clipPath><clipPath id="d38e3d2840"><path d="M 129.507812 107 L 239 107 L 239 201 L 129.507812 201 Z M 129.507812 107 " clip-rule="nonzero"/></clipPath><clipPath id="b9055cb13a"><path d="M 202.652344 96.820312 L 241.089844 96.820312 L 241.089844 135.257812 L 202.652344 135.257812 Z M 202.652344 96.820312 " clip-rule="nonzero"/></clipPath><clipPath id="0e53cea712"><path d="M 221.871094 96.820312 C 211.253906 96.820312 202.652344 105.425781 202.652344 116.039062 C 202.652344 126.65625 211.253906 135.257812 221.871094 135.257812 C 232.484375 135.257812 241.089844 126.65625 241.089844 116.039062 C 241.089844 105.425781 232.484375 96.820312 221.871094 96.820312 Z M 221.871094 96.820312 " clip-rule="nonzero"/></clipPath><clipPath id="715862cd0e"><path d="M 203 97 L 240.902344 97 L 240.902344 135 L 203 135 Z M 203 97 " clip-rule="nonzero"/></clipPath></defs><path fill="#ffffff" d="M 239.820312 146.417969 C 239.820312 146.417969 244.464844 147.046875 244.753906 143.894531 C 245.039062 140.738281 244.121094 134.375 242.289062 133.574219 C 240.453125 132.769531 240.511719 139.191406 240.511719 139.191406 L 239.820312 146.417969 " fill-opacity="1" fill-rule="nonzero"/><g clip-path="url(#3152472018)"><path fill="#4d4d4d" d="M 239.820312 146.417969 L 239.738281 147.046875 C 239.757812 147.050781 240.160156 147.105469 240.75 147.105469 C 241.484375 147.101562 242.507812 147.027344 243.449219 146.605469 C 243.921875 146.394531 244.375 146.085938 244.730469 145.644531 C 245.085938 145.203125 245.328125 144.625 245.386719 143.949219 C 245.421875 143.546875 245.441406 143.101562 245.441406 142.625 C 245.441406 140.898438 245.210938 138.777344 244.769531 136.960938 C 244.546875 136.050781 244.273438 135.214844 243.929688 134.53125 C 243.757812 134.1875 243.566406 133.878906 243.34375 133.617188 C 243.121094 133.351562 242.863281 133.128906 242.542969 132.988281 C 242.371094 132.914062 242.179688 132.867188 241.984375 132.867188 C 241.800781 132.867188 241.617188 132.910156 241.460938 132.984375 C 241.164062 133.121094 240.960938 133.347656 240.804688 133.585938 C 240.535156 134.003906 240.378906 134.503906 240.25 135.046875 C 240.066406 135.863281 239.976562 136.773438 239.925781 137.539062 C 239.875 138.308594 239.875 138.925781 239.875 139.128906 C 239.875 139.175781 239.875 139.207031 239.875 139.214844 L 240.511719 139.191406 L 239.875 139.132812 L 239.1875 146.355469 C 239.15625 146.695312 239.398438 147 239.738281 147.046875 L 239.820312 146.417969 L 240.457031 146.476562 L 241.144531 139.25 L 241.148438 139.167969 L 241.035156 139.171875 L 241.148438 139.171875 L 241.148438 139.167969 L 241.035156 139.171875 L 241.148438 139.171875 L 241.148438 139.128906 C 241.144531 138.832031 241.15625 137.441406 241.339844 136.171875 C 241.429688 135.535156 241.566406 134.929688 241.734375 134.542969 C 241.816406 134.351562 241.90625 134.222656 241.960938 134.171875 L 242 134.136719 L 241.984375 134.101562 L 241.984375 134.140625 L 242 134.136719 L 241.984375 134.101562 L 241.984375 134.140625 L 241.984375 134.136719 L 241.984375 134.140625 L 241.984375 134.136719 L 241.984375 134.140625 C 241.984375 134.140625 242 134.144531 242.03125 134.15625 C 242.117188 134.191406 242.238281 134.28125 242.371094 134.441406 C 242.613281 134.714844 242.871094 135.199219 243.09375 135.804688 C 243.433594 136.714844 243.707031 137.890625 243.890625 139.105469 C 244.074219 140.316406 244.167969 141.566406 244.167969 142.625 C 244.167969 143.070312 244.152344 143.480469 244.117188 143.835938 C 244.074219 144.289062 243.9375 144.597656 243.734375 144.847656 C 243.585938 145.035156 243.394531 145.191406 243.164062 145.324219 C 242.824219 145.519531 242.398438 145.652344 241.96875 145.730469 C 241.539062 145.804688 241.105469 145.832031 240.75 145.832031 C 240.496094 145.832031 240.28125 145.820312 240.128906 145.808594 C 240.054688 145.800781 239.996094 145.792969 239.960938 145.792969 L 239.917969 145.785156 L 239.90625 145.785156 L 239.820312 146.417969 L 240.457031 146.476562 L 239.820312 146.417969 " fill-opacity="1" fill-rule="nonzero"/></g><path fill="#ffffff" d="M 234.890625 133.085938 C 234.890625 133.085938 239.019531 128.410156 240.855469 136.753906 C 242.6875 145.097656 240.625 152.207031 234.890625 150.144531 L 234.890625 133.085938 " fill-opacity="1" fill-rule="nonzero"/><path fill="#4d4d4d" d="M 234.890625 133.085938 L 235.367188 133.507812 L 235.113281 133.28125 L 235.367188 133.507812 L 235.113281 133.28125 L 235.367188 133.507812 C 235.367188 133.507812 235.382812 133.488281 235.414062 133.457031 C 235.519531 133.347656 235.808594 133.070312 236.179688 132.832031 C 236.363281 132.714844 236.570312 132.609375 236.777344 132.535156 C 236.988281 132.457031 237.195312 132.414062 237.402344 132.417969 C 237.613281 132.417969 237.820312 132.457031 238.042969 132.570312 C 238.371094 132.738281 238.757812 133.082031 239.148438 133.765625 C 239.535156 134.445312 239.917969 135.457031 240.234375 136.890625 C 240.65625 138.828125 240.867188 140.691406 240.867188 142.371094 C 240.871094 144.65625 240.472656 146.597656 239.757812 147.898438 C 239.398438 148.550781 238.96875 149.039062 238.480469 149.367188 C 237.992188 149.691406 237.441406 149.863281 236.773438 149.867188 C 236.285156 149.867188 235.730469 149.769531 235.109375 149.542969 L 234.890625 150.144531 L 235.527344 150.144531 L 235.527344 133.085938 L 234.890625 133.085938 L 235.367188 133.507812 L 234.890625 133.085938 L 234.253906 133.085938 L 234.253906 150.144531 C 234.253906 150.414062 234.421875 150.652344 234.675781 150.742188 C 235.414062 151.007812 236.113281 151.140625 236.773438 151.140625 C 237.675781 151.140625 238.496094 150.886719 239.1875 150.425781 C 239.707031 150.078125 240.152344 149.617188 240.523438 149.078125 C 241.082031 148.265625 241.480469 147.269531 241.746094 146.136719 C 242.011719 145.007812 242.140625 143.738281 242.140625 142.371094 C 242.140625 140.585938 241.917969 138.636719 241.476562 136.617188 C 241.027344 134.59375 240.449219 133.261719 239.753906 132.390625 C 239.40625 131.957031 239.023438 131.640625 238.617188 131.433594 C 238.214844 131.230469 237.796875 131.140625 237.402344 131.144531 C 236.960938 131.144531 236.550781 131.246094 236.195312 131.394531 C 235.660156 131.613281 235.226562 131.925781 234.917969 132.183594 C 234.609375 132.441406 234.429688 132.644531 234.414062 132.664062 C 234.3125 132.777344 234.253906 132.929688 234.253906 133.085938 L 234.890625 133.085938 " fill-opacity="1" fill-rule="nonzero"/><path fill="#ffffff" d="M 151.929688 126.082031 C 151.929688 126.082031 148.242188 112.160156 148.761719 106.84375 C 149.28125 101.527344 151.652344 103.929688 152.6875 105.269531 C 153.71875 106.609375 163.832031 111.21875 165.558594 115.351562 C 165.558594 115.351562 158.53125 123.832031 151.929688 126.082031 " fill-opacity="1" fill-rule="nonzero"/><path fill="#4d4d4d" d="M 151.929688 126.082031 L 152.546875 125.917969 C 152.546875 125.917969 152.53125 125.871094 152.511719 125.78125 C 152.335938 125.109375 151.542969 122.023438 150.792969 118.417969 C 150.417969 116.617188 150.054688 114.6875 149.789062 112.867188 C 149.519531 111.046875 149.347656 109.335938 149.347656 108 C 149.347656 107.597656 149.363281 107.230469 149.394531 106.90625 C 149.511719 105.703125 149.734375 104.953125 149.949219 104.570312 C 150.054688 104.378906 150.152344 104.285156 150.21875 104.242188 C 150.285156 104.199219 150.324219 104.191406 150.390625 104.1875 C 150.464844 104.1875 150.585938 104.214844 150.734375 104.289062 C 150.960938 104.402344 151.234375 104.613281 151.488281 104.867188 C 151.746094 105.121094 151.988281 105.40625 152.179688 105.65625 C 152.296875 105.804688 152.425781 105.921875 152.578125 106.046875 C 152.859375 106.28125 153.230469 106.535156 153.675781 106.824219 C 154.460938 107.324219 155.476562 107.921875 156.585938 108.597656 C 158.253906 109.609375 160.128906 110.789062 161.703125 112.015625 C 162.488281 112.625 163.199219 113.25 163.765625 113.859375 C 164.332031 114.464844 164.75 115.0625 164.972656 115.597656 L 165.558594 115.351562 L 165.070312 114.945312 L 165.050781 114.964844 C 164.855469 115.203125 163.066406 117.316406 160.546875 119.628906 C 159.285156 120.785156 157.84375 121.992188 156.332031 123.035156 C 154.824219 124.078125 153.242188 124.960938 151.722656 125.476562 L 151.929688 126.082031 L 152.546875 125.917969 L 151.929688 126.082031 L 152.132812 126.683594 C 153.867188 126.089844 155.589844 125.109375 157.210938 123.976562 C 159.640625 122.273438 161.839844 120.226562 163.441406 118.597656 C 165.042969 116.972656 166.042969 115.769531 166.050781 115.757812 C 166.203125 115.574219 166.238281 115.324219 166.148438 115.105469 C 165.898438 114.507812 165.511719 113.933594 165.039062 113.375 C 164.210938 112.398438 163.105469 111.457031 161.894531 110.5625 C 160.078125 109.21875 158.027344 107.980469 156.347656 106.964844 C 155.507812 106.460938 154.765625 106.011719 154.199219 105.644531 C 153.914062 105.457031 153.679688 105.292969 153.5 105.15625 C 153.324219 105.023438 153.210938 104.910156 153.1875 104.878906 C 152.898438 104.503906 152.507812 104.042969 152.054688 103.65625 C 151.824219 103.464844 151.578125 103.289062 151.304688 103.152344 C 151.03125 103.015625 150.726562 102.914062 150.390625 102.914062 C 150.09375 102.914062 149.773438 103.003906 149.503906 103.1875 C 149.304688 103.324219 149.128906 103.507812 148.980469 103.722656 C 148.753906 104.046875 148.585938 104.449219 148.445312 104.949219 C 148.304688 105.453125 148.199219 106.054688 148.128906 106.785156 C 148.089844 107.160156 148.074219 107.566406 148.074219 108 C 148.074219 109.539062 148.28125 111.433594 148.585938 113.421875 C 149.5 119.390625 151.3125 126.230469 151.3125 126.242188 C 151.359375 126.414062 151.472656 126.558594 151.628906 126.640625 C 151.785156 126.726562 151.964844 126.742188 152.132812 126.683594 L 151.929688 126.082031 " fill-opacity="1" fill-rule="nonzero"/><path fill="#ffffff" d="M 237.644531 145.777344 C 237.644531 116.203125 215.445312 108.03125 190.703125 108.03125 C 167.636719 108.03125 148.648438 120.195312 146.183594 142.789062 C 144.203125 142.640625 140.933594 143.050781 137.882812 146.398438 C 136.40625 148.015625 133.980469 144.488281 131.078125 146.625 C 129.566406 147.742188 130.390625 163.519531 134.820312 166.425781 C 134.820312 166.425781 138.339844 167.800781 139.5625 167.648438 C 139.5625 167.648438 139.257812 169.636719 140.328125 171.472656 C 140.996094 172.621094 150.609375 179.546875 165.066406 183.992188 C 165.925781 186.578125 168.914062 195.554688 169.988281 198.878906 C 169.988281 198.878906 175.609375 201.402344 182.945312 198.878906 L 185.273438 187.644531 C 188.496094 187.820312 191.8125 187.808594 195.214844 187.546875 C 197.738281 187.386719 200.222656 187.085938 202.644531 186.652344 C 203.894531 190.417969 205.855469 196.324219 206.683594 198.878906 C 206.683594 198.878906 212.300781 201.402344 219.640625 198.878906 L 226.214844 175.421875 L 226.195312 175.429688 C 233.246094 168.664062 237.644531 158.929688 237.644531 145.777344 " fill-opacity="1" fill-rule="nonzero"/><g clip-path="url(#d38e3d2840)"><path fill="#4d4d4d" d="M 237.644531 145.777344 L 238.28125 145.777344 C 238.28125 138.304688 236.878906 132.144531 234.359375 127.117188 C 232.46875 123.347656 229.953125 120.21875 226.957031 117.660156 C 222.460938 113.816406 216.886719 111.253906 210.699219 109.648438 C 204.511719 108.042969 197.703125 107.394531 190.703125 107.394531 C 179.058594 107.394531 168.410156 110.460938 160.339844 116.425781 C 156.304688 119.40625 152.917969 123.109375 150.386719 127.507812 C 147.851562 131.902344 146.175781 136.988281 145.550781 142.71875 L 146.183594 142.789062 L 146.230469 142.152344 C 146.007812 142.132812 145.761719 142.125 145.507812 142.125 C 144.4375 142.125 143.128906 142.296875 141.726562 142.867188 C 140.324219 143.4375 138.832031 144.40625 137.410156 145.96875 C 137.316406 146.070312 137.242188 146.117188 137.164062 146.152344 C 137.089844 146.183594 137.007812 146.199219 136.890625 146.199219 C 136.734375 146.199219 136.519531 146.160156 136.265625 146.082031 C 135.882812 145.96875 135.417969 145.773438 134.894531 145.601562 C 134.371094 145.429688 133.78125 145.277344 133.132812 145.277344 C 132.363281 145.273438 131.515625 145.507812 130.703125 146.113281 C 130.554688 146.222656 130.457031 146.347656 130.375 146.476562 C 130.238281 146.707031 130.148438 146.957031 130.070312 147.242188 C 129.957031 147.675781 129.878906 148.195312 129.824219 148.800781 C 129.773438 149.402344 129.746094 150.089844 129.746094 150.832031 C 129.746094 153.488281 130.082031 156.910156 130.816406 159.96875 C 131.1875 161.496094 131.65625 162.929688 132.246094 164.140625 C 132.839844 165.351562 133.546875 166.347656 134.472656 166.957031 C 134.511719 166.984375 134.546875 167 134.589844 167.019531 C 134.597656 167.023438 135.394531 167.332031 136.378906 167.648438 C 136.867188 167.808594 137.40625 167.964844 137.917969 168.085938 C 138.433594 168.207031 138.914062 168.296875 139.351562 168.296875 C 139.449219 168.296875 139.546875 168.292969 139.636719 168.28125 L 139.5625 167.648438 L 138.933594 167.550781 C 138.929688 167.578125 138.882812 167.871094 138.882812 168.332031 C 138.886719 169.140625 139.015625 170.480469 139.777344 171.792969 C 139.867188 171.941406 139.96875 172.058594 140.097656 172.195312 C 140.339844 172.445312 140.683594 172.742188 141.136719 173.101562 C 142.722656 174.351562 145.664062 176.300781 149.710938 178.40625 C 153.757812 180.507812 158.90625 182.765625 164.878906 184.601562 L 165.066406 183.992188 L 164.460938 184.191406 C 165.320312 186.777344 168.308594 195.757812 169.382812 199.074219 C 169.4375 199.242188 169.5625 199.382812 169.726562 199.460938 C 169.78125 199.484375 172.359375 200.632812 176.324219 200.636719 C 178.304688 200.636719 180.632812 200.347656 183.152344 199.480469 C 183.367188 199.40625 183.523438 199.226562 183.570312 199.007812 L 185.898438 187.773438 L 185.273438 187.644531 L 185.238281 188.28125 C 186.660156 188.359375 188.101562 188.398438 189.558594 188.398438 C 191.433594 188.398438 193.335938 188.332031 195.265625 188.183594 C 195.550781 188.160156 195.785156 187.953125 195.839844 187.671875 C 195.898438 187.390625 195.757812 187.105469 195.5 186.980469 L 195.5 186.976562 L 195.214844 187.546875 L 195.253906 188.183594 C 197.804688 188.023438 200.308594 187.71875 202.757812 187.277344 L 202.644531 186.652344 L 202.039062 186.851562 C 203.292969 190.617188 205.25 196.523438 206.078125 199.074219 C 206.132812 199.246094 206.257812 199.382812 206.421875 199.460938 C 206.476562 199.484375 209.054688 200.632812 213.019531 200.636719 C 215 200.636719 217.328125 200.347656 219.847656 199.480469 C 220.042969 199.410156 220.195312 199.25 220.253906 199.050781 L 226.828125 175.59375 C 226.894531 175.363281 226.824219 175.117188 226.648438 174.957031 C 226.476562 174.792969 226.222656 174.742188 226 174.820312 L 225.980469 174.828125 L 226.195312 175.429688 L 226.636719 175.886719 C 230.226562 172.445312 233.140625 168.242188 235.15625 163.234375 C 237.167969 158.230469 238.28125 152.421875 238.28125 145.777344 L 237.007812 145.777344 C 237.007812 152.28125 235.917969 157.917969 233.972656 162.757812 C 232.027344 167.601562 229.21875 171.644531 225.753906 174.96875 C 225.539062 175.175781 225.496094 175.507812 225.652344 175.761719 C 225.8125 176.019531 226.128906 176.128906 226.410156 176.027344 L 226.429688 176.019531 L 226.214844 175.421875 L 225.601562 175.25 L 219.027344 198.707031 L 219.640625 198.878906 L 219.433594 198.273438 C 217.058594 199.089844 214.875 199.363281 213.019531 199.363281 C 211.160156 199.363281 209.628906 199.089844 208.566406 198.820312 C 208.039062 198.6875 207.625 198.550781 207.347656 198.453125 C 207.207031 198.402344 207.105469 198.363281 207.035156 198.335938 C 207 198.324219 206.976562 198.3125 206.960938 198.304688 L 206.945312 198.296875 L 206.941406 198.296875 L 206.867188 198.46875 L 206.941406 198.296875 L 206.867188 198.46875 L 206.941406 198.296875 L 206.683594 198.878906 L 207.289062 198.683594 C 206.460938 196.121094 204.5 190.21875 203.25 186.449219 C 203.148438 186.152344 202.84375 185.96875 202.53125 186.023438 C 200.132812 186.457031 197.675781 186.753906 195.175781 186.910156 C 194.886719 186.929688 194.648438 187.136719 194.589844 187.421875 C 194.535156 187.703125 194.671875 187.988281 194.929688 188.117188 L 194.933594 188.117188 L 195.214844 187.546875 L 195.167969 186.914062 C 193.273438 187.058594 191.402344 187.125 189.558594 187.125 C 188.125 187.125 186.707031 187.085938 185.308594 187.011719 C 184.992188 186.992188 184.714844 187.207031 184.652344 187.515625 L 182.324219 198.746094 L 182.945312 198.878906 L 182.738281 198.273438 C 180.363281 199.089844 178.183594 199.363281 176.324219 199.363281 C 174.46875 199.363281 172.933594 199.089844 171.871094 198.820312 C 171.34375 198.6875 170.929688 198.550781 170.652344 198.453125 C 170.511719 198.402344 170.410156 198.363281 170.34375 198.335938 C 170.308594 198.324219 170.28125 198.3125 170.265625 198.304688 L 170.25 198.296875 L 170.246094 198.296875 L 170.171875 198.46875 L 170.25 198.296875 L 170.246094 198.296875 L 170.171875 198.46875 L 170.25 198.296875 L 169.988281 198.878906 L 170.59375 198.683594 C 169.515625 195.355469 166.527344 186.378906 165.667969 183.792969 C 165.605469 183.59375 165.449219 183.445312 165.253906 183.382812 C 158.074219 181.175781 152.097656 178.351562 147.839844 175.941406 C 145.710938 174.734375 144.011719 173.632812 142.816406 172.769531 C 142.214844 172.339844 141.742188 171.964844 141.40625 171.675781 C 141.238281 171.53125 141.105469 171.40625 141.015625 171.3125 C 140.96875 171.261719 140.933594 171.222656 140.910156 171.191406 L 140.882812 171.160156 L 140.878906 171.152344 C 140.273438 170.125 140.15625 169.003906 140.15625 168.332031 C 140.15625 168.144531 140.167969 167.988281 140.175781 167.886719 C 140.179688 167.835938 140.183594 167.796875 140.1875 167.773438 L 140.191406 167.75 L 140.191406 167.746094 L 139.96875 167.710938 L 140.191406 167.746094 L 139.96875 167.710938 L 140.191406 167.746094 C 140.222656 167.550781 140.160156 167.351562 140.019531 167.207031 C 139.878906 167.0625 139.683594 166.992188 139.488281 167.015625 C 139.449219 167.023438 139.40625 167.023438 139.351562 167.023438 C 139.101562 167.027344 138.671875 166.960938 138.210938 166.847656 C 137.511719 166.683594 136.71875 166.429688 136.101562 166.214844 C 135.792969 166.109375 135.53125 166.011719 135.34375 165.945312 C 135.25 165.910156 135.179688 165.882812 135.128906 165.863281 C 135.078125 165.84375 135.054688 165.832031 135.054688 165.832031 L 134.820312 166.425781 L 135.171875 165.894531 C 134.542969 165.488281 133.921875 164.675781 133.390625 163.582031 C 132.589844 161.945312 131.984375 159.710938 131.59375 157.410156 C 131.203125 155.109375 131.019531 152.746094 131.019531 150.832031 C 131.019531 149.746094 131.078125 148.800781 131.191406 148.121094 C 131.242188 147.785156 131.3125 147.507812 131.378906 147.332031 C 131.410156 147.242188 131.441406 147.179688 131.460938 147.144531 L 131.480469 147.121094 L 131.382812 147.035156 L 131.457031 147.136719 L 131.480469 147.121094 L 131.382812 147.035156 L 131.457031 147.136719 C 132.074219 146.6875 132.601562 146.554688 133.132812 146.550781 C 133.726562 146.546875 134.34375 146.746094 134.960938 146.972656 C 135.269531 147.085938 135.582031 147.207031 135.898438 147.300781 C 136.214844 147.398438 136.542969 147.472656 136.890625 147.472656 C 137.144531 147.472656 137.40625 147.429688 137.660156 147.324219 C 137.914062 147.21875 138.152344 147.046875 138.351562 146.828125 C 139.65625 145.398438 140.976562 144.546875 142.207031 144.046875 C 143.433594 143.546875 144.574219 143.398438 145.507812 143.398438 C 145.730469 143.398438 145.941406 143.40625 146.140625 143.421875 C 146.480469 143.445312 146.78125 143.199219 146.816406 142.855469 C 147.425781 137.289062 149.046875 132.378906 151.488281 128.140625 C 155.152344 121.785156 160.660156 116.925781 167.40625 113.644531 C 174.15625 110.363281 182.136719 108.667969 190.703125 108.667969 C 196.855469 108.667969 202.835938 109.175781 208.339844 110.390625 C 212.464844 111.304688 216.320312 112.613281 219.777344 114.398438 C 224.964844 117.078125 229.253906 120.820312 232.265625 125.933594 C 235.273438 131.046875 237.007812 137.546875 237.007812 145.777344 L 237.644531 145.777344 " fill-opacity="1" fill-rule="nonzero"/></g><path fill="#4d4d4d" d="M 204.382812 112.308594 C 200.359375 111.667969 196.132812 111.394531 191.824219 111.394531 C 188.585938 111.394531 185.429688 111.660156 182.40625 112.1875 C 182.058594 112.246094 181.828125 112.578125 181.886719 112.921875 C 181.949219 113.269531 182.277344 113.5 182.625 113.441406 C 185.574219 112.925781 188.652344 112.667969 191.824219 112.667969 C 196.078125 112.667969 200.242188 112.941406 204.183594 113.566406 C 204.53125 113.621094 204.855469 113.382812 204.910156 113.039062 C 204.964844 112.691406 204.730469 112.363281 204.382812 112.308594 " fill-opacity="1" fill-rule="nonzero"/><path fill="#4d4d4d" d="M 158.980469 141.734375 C 158.980469 143.71875 157.371094 145.328125 155.386719 145.328125 C 153.402344 145.328125 151.792969 143.71875 151.792969 141.734375 C 151.792969 139.75 153.402344 138.140625 155.386719 138.140625 C 157.371094 138.140625 158.980469 139.75 158.980469 141.734375 " fill-opacity="1" fill-rule="nonzero"/><path fill="#ffffff" d="M 156 122.851562 C 156 122.851562 154.621094 108.519531 156 103.355469 C 157.375 98.195312 159.324219 100.949219 160.125 102.441406 C 160.929688 103.929688 170.160156 110.121094 171.191406 114.480469 C 171.191406 114.480469 162.878906 121.703125 156 122.851562 " fill-opacity="1" fill-rule="nonzero"/><path fill="#4d4d4d" d="M 156 122.851562 L 156.632812 122.789062 C 156.632812 122.789062 156.625 122.695312 156.605469 122.507812 C 156.488281 121.222656 156.023438 115.722656 156.023438 110.703125 C 156.023438 109.273438 156.0625 107.878906 156.15625 106.640625 C 156.25 105.402344 156.402344 104.320312 156.613281 103.523438 C 156.902344 102.4375 157.214844 101.75 157.480469 101.386719 C 157.613281 101.203125 157.726562 101.101562 157.808594 101.054688 C 157.890625 101.003906 157.933594 100.996094 157.984375 100.996094 C 158.050781 100.996094 158.148438 101.019531 158.285156 101.105469 C 158.488281 101.230469 158.742188 101.492188 158.972656 101.796875 C 159.199219 102.101562 159.40625 102.445312 159.566406 102.742188 C 159.65625 102.90625 159.761719 103.042969 159.890625 103.191406 C 160.132812 103.46875 160.457031 103.777344 160.851562 104.132812 C 161.542969 104.757812 162.445312 105.511719 163.433594 106.359375 C 164.914062 107.628906 166.574219 109.097656 167.929688 110.558594 C 168.605469 111.292969 169.203125 112.023438 169.664062 112.714844 C 170.125 113.410156 170.441406 114.0625 170.570312 114.628906 L 171.191406 114.480469 L 170.773438 114 L 170.753906 114.019531 C 170.519531 114.21875 168.410156 116.015625 165.550781 117.886719 C 164.117188 118.820312 162.5 119.777344 160.839844 120.5625 C 159.179688 121.347656 157.476562 121.960938 155.894531 122.222656 L 156 122.851562 L 156.632812 122.789062 L 156 122.851562 L 156.101562 123.480469 C 157.910156 123.175781 159.765625 122.488281 161.550781 121.632812 C 166.890625 119.066406 171.585938 114.980469 171.609375 114.960938 C 171.789062 114.804688 171.867188 114.566406 171.8125 114.332031 C 171.660156 113.703125 171.375 113.074219 171 112.445312 C 170.339844 111.347656 169.402344 110.238281 168.351562 109.160156 C 166.78125 107.539062 164.957031 105.980469 163.464844 104.710938 C 162.71875 104.074219 162.058594 103.511719 161.558594 103.054688 C 161.308594 102.828125 161.101562 102.625 160.949219 102.464844 C 160.796875 102.304688 160.703125 102.171875 160.6875 102.136719 C 160.445312 101.691406 160.113281 101.136719 159.6875 100.660156 C 159.476562 100.421875 159.238281 100.203125 158.960938 100.027344 C 158.6875 99.855469 158.355469 99.722656 157.984375 99.722656 C 157.699219 99.722656 157.398438 99.808594 157.140625 99.96875 C 156.75 100.210938 156.433594 100.59375 156.152344 101.117188 C 155.871094 101.640625 155.617188 102.316406 155.382812 103.191406 C 155.136719 104.117188 154.984375 105.261719 154.886719 106.542969 C 154.789062 107.828125 154.75 109.25 154.75 110.703125 C 154.75 116.523438 155.363281 122.902344 155.363281 122.914062 C 155.382812 123.089844 155.46875 123.25 155.609375 123.355469 C 155.75 123.464844 155.929688 123.507812 156.101562 123.480469 L 156 122.851562 " fill-opacity="1" fill-rule="nonzero"/><path fill="#ffffff" d="M 157.527344 104.101562 C 157.527344 104.101562 156.648438 118.550781 157.527344 120.617188 C 157.527344 120.617188 161.730469 119.871094 164.367188 116.945312 C 164.367188 116.945312 157.964844 102.269531 157.527344 104.101562 " fill-opacity="1" fill-rule="nonzero"/><path fill="#4d4d4d" d="M 157.527344 104.101562 L 156.890625 104.066406 C 156.890625 104.070312 156.5 110.496094 156.5 115.417969 C 156.5 116.648438 156.523438 117.789062 156.585938 118.71875 C 156.617188 119.183594 156.65625 119.597656 156.710938 119.953125 C 156.769531 120.3125 156.832031 120.601562 156.941406 120.867188 C 157.058594 121.136719 157.347656 121.292969 157.636719 121.242188 C 157.667969 121.238281 158.757812 121.042969 160.195312 120.46875 C 161.632812 119.894531 163.425781 118.9375 164.84375 117.371094 C 165.007812 117.1875 165.050781 116.921875 164.953125 116.691406 C 164.949219 116.6875 163.53125 113.433594 161.976562 110.171875 C 161.203125 108.539062 160.394531 106.90625 159.703125 105.667969 C 159.359375 105.042969 159.046875 104.523438 158.765625 104.132812 C 158.625 103.9375 158.496094 103.773438 158.351562 103.632812 C 158.28125 103.5625 158.203125 103.496094 158.101562 103.433594 C 158 103.375 157.867188 103.308594 157.664062 103.308594 C 157.566406 103.308594 157.453125 103.328125 157.351562 103.375 C 157.195312 103.449219 157.085938 103.566406 157.023438 103.671875 C 156.957031 103.773438 156.929688 103.871094 156.90625 103.957031 C 156.898438 103.992188 156.894531 104.027344 156.890625 104.066406 L 157.527344 104.101562 L 158.148438 104.25 L 157.789062 104.164062 L 158.058594 104.402344 C 158.136719 104.308594 158.144531 104.257812 158.148438 104.25 L 157.789062 104.164062 L 158.058594 104.402344 L 157.667969 104.058594 L 157.886719 104.53125 C 157.960938 104.496094 158.019531 104.449219 158.058594 104.402344 L 157.667969 104.058594 L 157.886719 104.53125 L 157.664062 104.050781 L 157.664062 104.582031 C 157.730469 104.582031 157.8125 104.566406 157.886719 104.53125 L 157.664062 104.050781 L 157.664062 104.582031 L 157.664062 104.164062 L 157.445312 104.527344 C 157.464844 104.539062 157.527344 104.578125 157.664062 104.582031 L 157.664062 104.164062 L 157.445312 104.527344 L 157.519531 104.40625 L 157.4375 104.523438 L 157.445312 104.527344 L 157.519531 104.40625 L 157.4375 104.523438 L 157.449219 104.507812 L 157.4375 104.523438 L 157.449219 104.507812 L 157.4375 104.523438 C 157.445312 104.523438 157.523438 104.597656 157.613281 104.71875 C 157.792969 104.945312 158.039062 105.324219 158.316406 105.804688 C 158.804688 106.640625 159.394531 107.78125 160 109.007812 C 160.910156 110.851562 161.859375 112.902344 162.578125 114.488281 C 162.9375 115.285156 163.238281 115.960938 163.449219 116.441406 C 163.558594 116.679688 163.640625 116.871094 163.699219 117 C 163.753906 117.128906 163.785156 117.199219 163.785156 117.199219 L 164.367188 116.945312 L 163.894531 116.519531 C 162.675781 117.875 161.046875 118.757812 159.722656 119.285156 C 159.0625 119.550781 158.476562 119.726562 158.0625 119.839844 C 157.855469 119.894531 157.6875 119.929688 157.578125 119.953125 C 157.523438 119.96875 157.480469 119.976562 157.453125 119.980469 L 157.421875 119.988281 L 157.414062 119.988281 L 157.527344 120.617188 L 158.113281 120.367188 C 158.074219 120.285156 158.015625 120.058594 157.972656 119.761719 C 157.902344 119.308594 157.851562 118.671875 157.816406 117.929688 C 157.785156 117.183594 157.773438 116.328125 157.773438 115.417969 C 157.773438 112.988281 157.871094 110.164062 157.96875 107.953125 C 158.015625 106.847656 158.066406 105.894531 158.101562 105.21875 C 158.121094 104.878906 158.136719 104.609375 158.144531 104.425781 C 158.15625 104.242188 158.164062 104.140625 158.164062 104.140625 L 157.527344 104.101562 L 158.148438 104.25 L 157.527344 104.101562 " fill-opacity="1" fill-rule="nonzero"/><path fill="#4d4d4d" d="M 151.296875 166.539062 C 145.679688 168.492188 139.5625 167.648438 139.5625 167.648438 C 139.5625 167.648438 139.257812 169.636719 140.328125 171.472656 C 140.992188 172.613281 150.503906 179.46875 164.820312 183.917969 C 151.980469 177.445312 143.269531 169.867188 143.269531 169.867188 C 150.722656 169.40625 151.296875 166.539062 151.296875 166.539062 " fill-opacity="1" fill-rule="nonzero"/><g clip-path="url(#b9055cb13a)"><g clip-path="url(#0e53cea712)"><path fill="#ffffff" d="M 202.652344 96.820312 L 241.089844 96.820312 L 241.089844 135.257812 L 202.652344 135.257812 Z M 202.652344 96.820312 " fill-opacity="1" fill-rule="nonzero"/></g></g><g clip-path="url(#715862cd0e)"><path fill="#fd6800" d="M 234.667969 103.25 C 234.246094 102.828125 233.808594 102.425781 233.351562 102.046875 C 232.894531 101.667969 232.417969 101.3125 231.925781 100.980469 C 231.433594 100.648438 230.925781 100.339844 230.402344 100.058594 C 229.878906 99.773438 229.34375 99.519531 228.796875 99.289062 C 228.246094 99.058594 227.6875 98.855469 227.121094 98.683594 C 226.550781 98.507812 225.976562 98.359375 225.394531 98.242188 C 224.8125 98.125 224.222656 98.035156 223.632812 97.976562 C 223.039062 97.914062 222.449219 97.886719 221.851562 97.882812 C 221.257812 97.882812 220.664062 97.910156 220.074219 97.964844 C 219.480469 98.023438 218.894531 98.109375 218.3125 98.222656 C 217.726562 98.339844 217.152344 98.480469 216.582031 98.652344 C 216.011719 98.824219 215.453125 99.023438 214.902344 99.25 C 214.355469 99.476562 213.816406 99.730469 213.292969 100.011719 C 212.769531 100.289062 212.257812 100.59375 211.765625 100.925781 C 211.269531 101.253906 210.792969 101.609375 210.332031 101.984375 C 209.871094 102.363281 209.433594 102.761719 209.011719 103.183594 C 208.59375 103.601562 208.191406 104.042969 207.816406 104.503906 C 207.4375 104.960938 207.085938 105.4375 206.753906 105.933594 C 206.425781 106.429688 206.121094 106.9375 205.839844 107.460938 C 205.5625 107.988281 205.308594 108.523438 205.082031 109.074219 C 204.855469 109.625 204.65625 110.183594 204.484375 110.753906 C 204.3125 111.320312 204.167969 111.898438 204.054688 112.480469 C 203.9375 113.0625 203.851562 113.652344 203.796875 114.242188 C 203.738281 114.835938 203.710938 115.429688 203.714844 116.023438 C 203.714844 116.617188 203.746094 117.210938 203.804688 117.800781 C 203.867188 118.394531 203.953125 118.980469 204.074219 119.5625 C 204.191406 120.144531 204.335938 120.722656 204.511719 121.289062 C 204.6875 121.859375 204.890625 122.417969 205.117188 122.964844 C 205.347656 123.511719 205.605469 124.050781 205.886719 124.574219 C 206.167969 125.09375 206.476562 125.605469 206.808594 126.097656 C 207.140625 126.589844 207.5 127.0625 207.878906 127.523438 C 208.257812 127.980469 208.660156 128.417969 209.082031 128.835938 C 209.5 129.257812 209.9375 129.660156 210.394531 130.039062 C 210.851562 130.417969 211.328125 130.773438 211.820312 131.105469 C 212.3125 131.441406 212.820312 131.746094 213.34375 132.03125 C 213.867188 132.3125 214.402344 132.570312 214.953125 132.796875 C 215.5 133.027344 216.058594 133.230469 216.625 133.40625 C 217.195312 133.578125 217.769531 133.726562 218.351562 133.84375 C 218.9375 133.960938 219.523438 134.050781 220.113281 134.109375 C 220.707031 134.171875 221.300781 134.203125 221.894531 134.203125 C 222.488281 134.203125 223.082031 134.175781 223.671875 134.121094 C 224.265625 134.0625 224.851562 133.976562 225.4375 133.863281 C 226.019531 133.746094 226.59375 133.605469 227.164062 133.433594 C 227.734375 133.261719 228.292969 133.0625 228.84375 132.835938 C 229.390625 132.609375 229.929688 132.355469 230.453125 132.074219 C 230.980469 131.796875 231.488281 131.492188 231.984375 131.160156 C 232.476562 130.832031 232.953125 130.476562 233.414062 130.101562 C 233.875 129.722656 234.3125 129.324219 234.734375 128.90625 C 235.15625 128.484375 235.554688 128.042969 235.929688 127.585938 C 236.308594 127.125 236.660156 126.648438 236.992188 126.152344 C 237.320312 125.660156 237.625 125.148438 237.90625 124.625 C 238.1875 124.097656 238.4375 123.5625 238.664062 123.011719 C 238.890625 122.464844 239.089844 121.902344 239.261719 121.335938 C 239.433594 120.765625 239.578125 120.1875 239.691406 119.605469 C 239.808594 119.023438 239.894531 118.433594 239.949219 117.84375 C 240.007812 117.25 240.035156 116.65625 240.035156 116.0625 C 240.03125 115.46875 240 114.875 239.941406 114.285156 C 239.882812 113.691406 239.792969 113.105469 239.675781 112.523438 C 239.554688 111.941406 239.410156 111.363281 239.234375 110.796875 C 239.058594 110.226562 238.859375 109.667969 238.628906 109.121094 C 238.398438 108.574219 238.144531 108.039062 237.859375 107.515625 C 237.578125 106.992188 237.269531 106.484375 236.9375 105.992188 C 236.605469 105.496094 236.25 105.023438 235.871094 104.566406 C 235.488281 104.105469 235.089844 103.667969 234.667969 103.25 Z M 236.820312 124 L 236.316406 123.707031 C 236.175781 123.628906 236.03125 123.609375 235.875 123.648438 C 235.71875 123.691406 235.601562 123.78125 235.519531 123.921875 C 235.4375 124.0625 235.421875 124.210938 235.460938 124.363281 C 235.503906 124.519531 235.59375 124.636719 235.734375 124.71875 L 236.234375 125.007812 C 234.847656 127.21875 233.046875 129.015625 230.839844 130.40625 L 230.550781 129.902344 C 230.46875 129.761719 230.351562 129.671875 230.195312 129.632812 C 230.039062 129.589844 229.890625 129.609375 229.753906 129.691406 C 229.613281 129.769531 229.523438 129.886719 229.480469 130.042969 C 229.4375 130.199219 229.457031 130.347656 229.539062 130.488281 L 229.828125 130.988281 C 227.523438 132.21875 225.066406 132.875 222.457031 132.957031 L 222.457031 132.382812 C 222.457031 132.222656 222.398438 132.085938 222.285156 131.972656 C 222.171875 131.859375 222.035156 131.800781 221.875 131.800781 C 221.710938 131.800781 221.574219 131.859375 221.460938 131.972656 C 221.347656 132.085938 221.289062 132.222656 221.289062 132.382812 L 221.289062 132.957031 C 218.679688 132.875 216.222656 132.21875 213.917969 130.988281 L 214.207031 130.488281 C 214.289062 130.347656 214.308594 130.199219 214.265625 130.042969 C 214.226562 129.886719 214.132812 129.769531 213.996094 129.6875 C 213.855469 129.609375 213.707031 129.589844 213.550781 129.628906 C 213.394531 129.671875 213.277344 129.761719 213.199219 129.902344 L 212.90625 130.40625 C 210.699219 129.015625 208.898438 127.21875 207.511719 125.007812 L 208.011719 124.71875 C 208.152344 124.636719 208.242188 124.519531 208.285156 124.363281 C 208.328125 124.210938 208.308594 124.0625 208.226562 123.921875 C 208.148438 123.78125 208.027344 123.691406 207.871094 123.648438 C 207.71875 123.609375 207.570312 123.628906 207.429688 123.707031 L 206.925781 124 C 205.699219 121.695312 205.042969 119.238281 204.960938 116.625 L 205.53125 116.625 C 205.695312 116.625 205.832031 116.570312 205.945312 116.457031 C 206.058594 116.34375 206.117188 116.203125 206.117188 116.042969 C 206.117188 115.882812 206.058594 115.746094 205.945312 115.628906 C 205.832031 115.515625 205.695312 115.460938 205.53125 115.460938 L 204.960938 115.460938 C 205.042969 112.847656 205.699219 110.390625 206.925781 108.085938 L 207.429688 108.378906 C 207.570312 108.457031 207.71875 108.476562 207.871094 108.4375 C 208.027344 108.394531 208.144531 108.304688 208.226562 108.164062 C 208.308594 108.023438 208.328125 107.878906 208.285156 107.722656 C 208.242188 107.566406 208.152344 107.449219 208.011719 107.367188 L 207.511719 107.078125 C 208.898438 104.867188 210.699219 103.070312 212.90625 101.683594 L 213.199219 102.183594 C 213.277344 102.324219 213.394531 102.414062 213.550781 102.457031 C 213.707031 102.496094 213.855469 102.476562 213.996094 102.398438 C 214.132812 102.316406 214.226562 102.199219 214.265625 102.042969 C 214.308594 101.886719 214.289062 101.738281 214.207031 101.601562 L 213.917969 101.097656 C 216.222656 99.867188 218.679688 99.210938 221.289062 99.128906 L 221.289062 99.703125 C 221.289062 99.863281 221.347656 100 221.460938 100.113281 C 221.574219 100.230469 221.710938 100.285156 221.875 100.285156 C 222.035156 100.285156 222.171875 100.230469 222.285156 100.113281 C 222.398438 100 222.457031 99.863281 222.457031 99.703125 L 222.457031 99.128906 C 225.066406 99.210938 227.523438 99.867188 229.828125 101.097656 L 229.539062 101.601562 C 229.457031 101.738281 229.4375 101.886719 229.480469 102.042969 C 229.523438 102.199219 229.613281 102.316406 229.753906 102.398438 C 229.890625 102.476562 230.039062 102.496094 230.195312 102.457031 C 230.351562 102.414062 230.46875 102.324219 230.550781 102.183594 L 230.839844 101.683594 C 233.046875 103.070312 234.847656 104.867188 236.234375 107.078125 L 235.734375 107.367188 C 235.59375 107.449219 235.503906 107.566406 235.460938 107.722656 C 235.421875 107.878906 235.4375 108.023438 235.519531 108.164062 C 235.601562 108.304688 235.71875 108.394531 235.875 108.4375 C 236.03125 108.476562 236.175781 108.457031 236.316406 108.378906 L 236.820312 108.085938 C 238.046875 110.390625 238.703125 112.847656 238.785156 115.460938 L 238.214844 115.460938 C 238.054688 115.460938 237.914062 115.515625 237.800781 115.628906 C 237.6875 115.746094 237.628906 115.882812 237.628906 116.042969 C 237.628906 116.203125 237.6875 116.34375 237.800781 116.457031 C 237.914062 116.570312 238.054688 116.625 238.214844 116.625 L 238.785156 116.625 C 238.703125 119.238281 238.046875 121.695312 236.820312 124 Z M 236.820312 124 " fill-opacity="1" fill-rule="nonzero"/></g><path fill="#fd6800" d="M 221.875 101.453125 C 213.828125 101.453125 207.285156 108 207.285156 116.042969 C 207.285156 124.089844 213.828125 130.632812 221.875 130.632812 C 229.917969 130.632812 236.464844 124.089844 236.464844 116.042969 C 236.464844 108 229.917969 101.453125 221.875 101.453125 Z M 221.875 129.464844 C 214.472656 129.464844 208.449219 123.445312 208.449219 116.042969 C 208.449219 108.640625 214.472656 102.621094 221.875 102.621094 C 229.273438 102.621094 235.296875 108.640625 235.296875 116.042969 C 235.296875 123.445312 229.273438 129.464844 221.875 129.464844 Z M 221.875 129.464844 " fill-opacity="1" fill-rule="nonzero"/><path fill="#fd6800" d="M 226.542969 112.542969 C 226.703125 112.542969 226.839844 112.484375 226.953125 112.371094 C 227.070312 112.257812 227.125 112.121094 227.125 111.957031 L 227.125 111.667969 C 227.125 111.394531 227.074219 111.136719 226.96875 110.886719 C 226.867188 110.636719 226.71875 110.414062 226.527344 110.222656 C 226.335938 110.03125 226.113281 109.882812 225.863281 109.78125 C 225.613281 109.675781 225.355469 109.625 225.082031 109.625 L 222.457031 109.625 L 222.457031 108.457031 C 222.457031 108.296875 222.398438 108.15625 222.285156 108.042969 C 222.171875 107.929688 222.035156 107.871094 221.875 107.871094 C 221.710938 107.871094 221.574219 107.929688 221.460938 108.042969 C 221.347656 108.15625 221.289062 108.296875 221.289062 108.457031 L 221.289062 109.625 L 220.121094 109.625 C 219.660156 109.625 219.210938 109.710938 218.78125 109.890625 C 218.355469 110.066406 217.976562 110.320312 217.648438 110.648438 C 217.316406 110.976562 217.066406 111.355469 216.886719 111.785156 C 216.710938 112.214844 216.621094 112.660156 216.621094 113.125 C 216.621094 113.589844 216.710938 114.035156 216.886719 114.464844 C 217.066406 114.894531 217.316406 115.273438 217.648438 115.601562 C 217.976562 115.929688 218.355469 116.183594 218.78125 116.359375 C 219.210938 116.539062 219.660156 116.625 220.121094 116.625 L 221.289062 116.625 L 221.289062 121.296875 L 218.664062 121.296875 C 218.421875 121.296875 218.214844 121.210938 218.042969 121.039062 C 217.875 120.867188 217.789062 120.660156 217.789062 120.421875 L 217.789062 120.128906 C 217.789062 119.96875 217.730469 119.828125 217.617188 119.714844 C 217.503906 119.601562 217.367188 119.546875 217.203125 119.546875 C 217.042969 119.546875 216.90625 119.601562 216.792969 119.714844 C 216.679688 119.828125 216.621094 119.96875 216.621094 120.128906 L 216.621094 120.421875 C 216.621094 120.691406 216.671875 120.953125 216.777344 121.203125 C 216.882812 121.453125 217.027344 121.671875 217.21875 121.863281 C 217.410156 122.054688 217.632812 122.203125 217.882812 122.308594 C 218.132812 122.410156 218.394531 122.460938 218.664062 122.464844 L 221.289062 122.464844 L 221.289062 123.628906 C 221.289062 123.792969 221.347656 123.929688 221.460938 124.042969 C 221.574219 124.15625 221.710938 124.214844 221.875 124.214844 C 222.035156 124.214844 222.171875 124.15625 222.285156 124.042969 C 222.398438 123.929688 222.457031 123.792969 222.457031 123.628906 L 222.457031 122.464844 L 223.625 122.464844 C 224.089844 122.464844 224.535156 122.375 224.964844 122.195312 C 225.394531 122.019531 225.773438 121.765625 226.101562 121.4375 C 226.429688 121.109375 226.683594 120.730469 226.859375 120.300781 C 227.035156 119.871094 227.125 119.425781 227.125 118.960938 C 227.125 118.496094 227.035156 118.050781 226.859375 117.621094 C 226.683594 117.191406 226.429688 116.8125 226.101562 116.484375 C 225.773438 116.15625 225.394531 115.902344 224.964844 115.726562 C 224.535156 115.546875 224.089844 115.460938 223.625 115.460938 L 222.457031 115.460938 L 222.457031 110.789062 L 225.082031 110.789062 C 225.324219 110.792969 225.53125 110.875 225.703125 111.046875 C 225.871094 111.21875 225.957031 111.425781 225.957031 111.667969 L 225.957031 111.957031 C 225.957031 112.121094 226.015625 112.257812 226.128906 112.371094 C 226.242188 112.484375 226.382812 112.542969 226.542969 112.542969 Z M 221.289062 115.460938 L 220.121094 115.460938 C 219.8125 115.460938 219.515625 115.402344 219.230469 115.28125 C 218.941406 115.164062 218.691406 114.996094 218.472656 114.777344 C 218.253906 114.558594 218.085938 114.304688 217.964844 114.019531 C 217.847656 113.734375 217.789062 113.433594 217.789062 113.125 C 217.789062 112.816406 217.847656 112.519531 217.964844 112.230469 C 218.085938 111.945312 218.253906 111.695312 218.472656 111.476562 C 218.691406 111.253906 218.941406 111.085938 219.230469 110.96875 C 219.515625 110.851562 219.8125 110.789062 220.121094 110.789062 L 221.289062 110.789062 Z M 223.625 116.625 C 223.933594 116.625 224.230469 116.6875 224.519531 116.804688 C 224.804688 116.921875 225.054688 117.089844 225.273438 117.3125 C 225.492188 117.53125 225.664062 117.78125 225.78125 118.066406 C 225.898438 118.355469 225.957031 118.652344 225.957031 118.960938 C 225.957031 119.269531 225.898438 119.570312 225.78125 119.855469 C 225.664062 120.140625 225.492188 120.394531 225.273438 120.613281 C 225.054688 120.832031 224.804688 121 224.519531 121.117188 C 224.230469 121.238281 223.933594 121.296875 223.625 121.296875 L 222.457031 121.296875 L 222.457031 116.625 Z M 223.625 116.625 " fill-opacity="1" fill-rule="nonzero"/><g fill="#4d4d4d" fill-opacity="1"><g transform="translate(157.856749, 238.947832)"><g><path d="M 15.074219 -6.253906 C 14.914062 -6.347656 14.820312 -6.378906 14.566406 -6.378906 C 14.34375 -6.378906 14.21875 -6.285156 14.027344 -6.09375 C 13.234375 -5.015625 11.773438 -4.347656 10.21875 -4.347656 C 7.171875 -4.347656 6.03125 -7.332031 6.03125 -10.125 C 6.03125 -12.949219 7.265625 -15.867188 10.25 -15.867188 C 11.804688 -15.867188 13.265625 -15.203125 14.058594 -14.121094 C 14.25 -13.933594 14.375 -13.835938 14.597656 -13.835938 C 14.851562 -13.835938 14.949219 -13.867188 15.105469 -13.964844 L 17.136719 -15.804688 C 17.296875 -15.929688 17.390625 -16.121094 17.390625 -16.3125 C 17.390625 -16.4375 17.328125 -16.597656 17.265625 -16.726562 C 15.675781 -18.976562 13.074219 -20.246094 10.3125 -20.246094 C 4.601562 -20.246094 1.617188 -15.550781 1.617188 -10.09375 C 1.617188 -4.695312 4.695312 0.03125 10.28125 0.03125 C 13.042969 0.03125 15.644531 -1.238281 17.234375 -3.492188 C 17.296875 -3.617188 17.359375 -3.777344 17.359375 -3.902344 C 17.359375 -4.09375 17.265625 -4.285156 17.105469 -4.410156 Z M 15.074219 -6.253906 "/></g></g></g><g fill="#4d4d4d" fill-opacity="1"><g transform="translate(176.262753, 238.947832)"><g><path d="M 12.949219 -5.617188 C 12.949219 -5.457031 12.949219 -5.363281 12.820312 -5.203125 C 12.1875 -4.632812 11.203125 -4.347656 10.25 -4.347656 C 7.171875 -4.347656 6.03125 -7.332031 6.03125 -10.125 C 6.03125 -12.949219 7.265625 -15.867188 10.25 -15.867188 C 11.804688 -15.867188 13.265625 -15.203125 14.058594 -14.121094 C 14.25 -13.933594 14.375 -13.835938 14.597656 -13.835938 C 14.851562 -13.835938 14.949219 -13.867188 15.105469 -13.964844 L 17.136719 -15.804688 C 17.296875 -15.929688 17.390625 -16.121094 17.390625 -16.3125 C 17.390625 -16.4375 17.328125 -16.597656 17.265625 -16.726562 C 15.675781 -18.976562 13.074219 -20.246094 10.3125 -20.246094 C 4.601562 -20.246094 1.617188 -15.550781 1.617188 -10.09375 C 1.617188 -4.695312 4.695312 0.03125 10.28125 0.03125 C 13.042969 0.03125 15.644531 -1.238281 17.234375 -3.492188 C 17.296875 -3.617188 17.359375 -3.777344 17.359375 -3.871094 L 17.359375 -11.171875 C 17.359375 -11.617188 16.914062 -11.902344 16.660156 -11.902344 L 10.566406 -11.902344 C 10.21875 -11.902344 9.902344 -11.550781 9.902344 -11.171875 L 9.902344 -9.109375 C 9.902344 -8.726562 10.125 -8.410156 10.566406 -8.410156 L 12.25 -8.410156 C 12.632812 -8.410156 12.949219 -8.027344 12.949219 -7.710938 Z M 12.949219 -5.617188 "/></g></g></g><g fill="#4d4d4d" fill-opacity="1"><g transform="translate(195.303452, 238.947832)"><g><path d="M 18.882812 0 C 19.261719 0 19.613281 -0.347656 19.613281 -0.730469 L 19.613281 -19.550781 C 19.613281 -19.960938 19.261719 -20.246094 18.882812 -20.246094 L 16.503906 -20.246094 C 16.28125 -20.246094 16.058594 -20.121094 15.929688 -19.929688 L 11.488281 -12.820312 C 11.363281 -12.597656 11.140625 -12.503906 10.917969 -12.503906 C 10.664062 -12.503906 10.472656 -12.597656 10.3125 -12.820312 L 5.902344 -19.929688 C 5.777344 -20.121094 5.523438 -20.246094 5.269531 -20.246094 L 2.917969 -20.246094 C 2.539062 -20.246094 2.222656 -19.929688 2.222656 -19.550781 L 2.222656 -0.730469 C 2.222656 -0.253906 2.570312 0 2.917969 0 L 5.933594 0 C 6.316406 0 6.601562 -0.347656 6.601562 -0.730469 L 6.601562 -9.109375 C 6.601562 -9.488281 6.917969 -9.804688 7.300781 -9.804688 C 7.519531 -9.804688 7.773438 -9.679688 7.902344 -9.488281 L 10.3125 -5.617188 C 10.472656 -5.394531 10.664062 -5.203125 10.917969 -5.203125 C 11.140625 -5.203125 11.328125 -5.363281 11.488281 -5.617188 L 13.898438 -9.488281 C 14.027344 -9.679688 14.28125 -9.804688 14.503906 -9.804688 C 14.914062 -9.804688 15.167969 -9.488281 15.167969 -9.109375 L 15.167969 -0.730469 C 15.167969 -0.253906 15.613281 0 15.867188 0 Z M 18.882812 0 "/></g></g></g></svg>